<svg xmlns="http://www.w3.org/2000/svg" xmlns:xlink="http://www.w3.org/1999/xlink" viewBox="0 0 100 100"><defs><style>.cls-1{isolation:isolate;}.cls-2{fill:#1c0d04;}.cls-3{fill:#ce2708;}.cls-4{fill:#e8331a;}.cls-5{fill:#474747;}.cls-6{fill:#c3c3c3;}.cls-7{fill:#f6f1d3;}.cls-8{fill:#4a3231;}.cls-9{fill:#3d3d3d;}.cls-10{fill:#bfbfbf;}.cls-10,.cls-58{mix-blend-mode:multiply;}.cls-11{fill:#494848;}.cls-12{fill:#594040;}.cls-13{fill:#a7a9ac;}.cls-14{fill:#1a1a1a;}.cls-15{fill:#4d4d4d;}.cls-16{fill:#ffb743;}.cls-17{fill:#545454;}.cls-18{fill:#cec8ab;}.cls-19{fill:#aa1b07;}.cls-20{fill:#ddd6ba;}.cls-21{fill:#ecf4ce;}.cls-22{fill:gray;}.cls-23{fill:#737171;}.cls-24{fill:#efceac;}.cls-25{fill:#bea68c;}.cls-26{fill:#c9c3b9;}.cls-27{fill:#fff;}.cls-28{fill:#470a04;}.cls-29{fill:#e2ded7;}.cls-30{fill:#2d6572;}.cls-31{fill:#357787;}.cls-32{fill:#ffce35;}.cls-33{fill:#4a2100;}.cls-34{fill:#774b42;}.cls-35{fill:url(#radial-gradient);}.cls-36{fill:#d8a88f;}.cls-37{fill:url(#linear-gradient);}.cls-38{fill:#150f00;}.cls-39{fill:#a6917a;}.cls-40{fill:#ffc755;}.cls-41{fill:#666;}.cls-42{fill:#333;}.cls-43{fill:#f12e09;}.cls-44{fill:#ffad40;}.cls-45{fill:#feeba0;}.cls-46{fill:red;}.cls-47{fill:#0032a0;}.cls-48{fill:url(#linear-gradient-2);}.cls-49{fill:url(#linear-gradient-3);}.cls-50{fill:url(#linear-gradient-4);}.cls-51{fill:url(#linear-gradient-5);}.cls-52{fill:url(#linear-gradient-6);}.cls-53{fill:url(#linear-gradient-7);}.cls-54{fill:url(#linear-gradient-8);}.cls-55{fill:url(#linear-gradient-9);}.cls-56{fill:url(#linear-gradient-10);}.cls-57{fill:url(#linear-gradient-11);}.cls-58{opacity:0.4;fill:url(#linear-gradient-12);}</style><radialGradient id="radial-gradient" cx="6100.99" cy="20.94" r="3.18" gradientTransform="translate(-6046.06)" gradientUnits="userSpaceOnUse"><stop offset="0" stop-color="#e89587"/><stop offset="1" stop-color="#efceac"/></radialGradient><linearGradient id="linear-gradient" x1="6111.34" y1="19.57" x2="6109.13" y2="20.65" gradientTransform="translate(-6046.06)" gradientUnits="userSpaceOnUse"><stop offset="0" stop-color="#e88076"/><stop offset="1" stop-color="#efceac"/></linearGradient><linearGradient id="linear-gradient-2" x1="-894.37" y1="29.49" x2="-894.1" y2="29.49" gradientTransform="matrix(-1, 0, 0, 1, -870.64, 0)" gradientUnits="userSpaceOnUse"><stop offset="0" stop-color="#afafaf"/><stop offset="0.04" stop-color="#bebdbd"/><stop offset="0.08" stop-color="#cccbcb"/><stop offset="0.25" stop-color="#fff"/><stop offset="0.32" stop-color="#2f2f2f"/><stop offset="0.35" stop-color="#646464"/><stop offset="0.38" stop-color="#a6a6a6"/><stop offset="0.41" stop-color="#d6d6d6"/><stop offset="0.43" stop-color="#f4f4f4"/><stop offset="0.44" stop-color="#fff"/><stop offset="0.61" stop-color="#fff"/><stop offset="0.63" stop-color="#d5d5d5"/><stop offset="0.66" stop-color="#969696"/><stop offset="0.69" stop-color="#676767"/><stop offset="0.72" stop-color="#4b4b4b"/><stop offset="0.73" stop-color="#404040"/><stop offset="0.75" stop-color="#2e2e2e"/><stop offset="0.79" stop-color="#1c1c1c"/><stop offset="0.81" stop-color="#151515"/><stop offset="0.88" stop-color="#d6d6d6"/><stop offset="0.93" stop-color="#d7d7d8"/><stop offset="1" stop-color="#4e4e4e"/></linearGradient><linearGradient id="linear-gradient-3" x1="-894.37" y1="24.69" x2="-894.1" y2="24.69" gradientTransform="matrix(-1, 0, 0, 1, -870.64, 0)" gradientUnits="userSpaceOnUse"><stop offset="0.02" stop-color="#c7c7c7"/><stop offset="0.48" stop-color="#fff"/><stop offset="0.73" stop-color="#ababab"/><stop offset="0.99" stop-color="#adadad"/></linearGradient><linearGradient id="linear-gradient-4" x1="6763.86" y1="-7625.96" x2="6763.86" y2="-7624.83" gradientTransform="matrix(0, -1, -1, 0, -7601.8, 6798.17)" xlink:href="#linear-gradient-2"/><linearGradient id="linear-gradient-5" x1="6763.97" y1="-7625.96" x2="6763.97" y2="-7624.83" gradientTransform="matrix(0, -1, -1, 0, -7601.8, 6798.17)" xlink:href="#linear-gradient-2"/><linearGradient id="linear-gradient-6" x1="6763.76" y1="-7625.96" x2="6763.76" y2="-7624.83" gradientTransform="matrix(0, -1, -1, 0, -7601.81, 6798.17)" gradientUnits="userSpaceOnUse"><stop offset="0" stop-color="#d4d3d3"/><stop offset="0.03" stop-color="#c5c4c4"/><stop offset="0.09" stop-color="#9e9e9e"/><stop offset="0.17" stop-color="#616261"/><stop offset="0.17" stop-color="#646564"/><stop offset="0.22" stop-color="#a6a7a6"/><stop offset="0.25" stop-color="#d6d7d6"/><stop offset="0.28" stop-color="#f4f4f4"/><stop offset="0.3" stop-color="#fff"/><stop offset="0.4" stop-color="#fff"/><stop offset="0.43" stop-color="#c6c6c6"/><stop offset="0.46" stop-color="#989797"/><stop offset="0.48" stop-color="#7c7b7b"/><stop offset="0.49" stop-color="#717070"/><stop offset="0.53" stop-color="#646363"/><stop offset="0.61" stop-color="#525151"/><stop offset="0.66" stop-color="#4b4a4a"/><stop offset="0.76" stop-color="#f5f5f5"/><stop offset="0.83" stop-color="#f7f6f6"/><stop offset="1" stop-color="#7c7c7c"/></linearGradient><linearGradient id="linear-gradient-7" x1="6763.78" y1="-7625.96" x2="6763.78" y2="-7624.83" gradientTransform="matrix(0, -1, -1, 0, -7601.81, 6798.17)" gradientUnits="userSpaceOnUse"><stop offset="0" stop-color="#6d6d6c"/><stop offset="0.03" stop-color="#5e5e5d"/><stop offset="0.09" stop-color="#373737"/><stop offset="0.17"/><stop offset="0.18" stop-color="#161616"/><stop offset="0.22" stop-color="#585858"/><stop offset="0.26" stop-color="#888"/><stop offset="0.28" stop-color="#a6a6a6"/><stop offset="0.3" stop-color="#b1b1b1"/><stop offset="0.4" stop-color="#b1b1b1"/><stop offset="0.41" stop-color="#9c9c9c"/><stop offset="0.44" stop-color="#5d5d5d"/><stop offset="0.46" stop-color="#2e2f2f"/><stop offset="0.48" stop-color="#121313"/><stop offset="0.49" stop-color="#070808"/><stop offset="0.51" stop-color="#060707"/><stop offset="0.66"/><stop offset="0.76" stop-color="#8c8c8c"/><stop offset="0.83" stop-color="#8d8e8e"/><stop offset="1" stop-color="#131313"/></linearGradient><linearGradient id="linear-gradient-8" x1="6763.77" y1="-7625.96" x2="6763.77" y2="-7624.83" gradientTransform="matrix(0, -1, -1, 0, -7601.81, 6798.17)" gradientUnits="userSpaceOnUse"><stop offset="0" stop-color="#afafaf"/><stop offset="0.05" stop-color="#a0a0a0"/><stop offset="0.14" stop-color="#797979"/><stop offset="0.26" stop-color="#3b3b3b"/><stop offset="0.28" stop-color="#2f2f2f"/><stop offset="0.3" stop-color="#646464"/><stop offset="0.32" stop-color="#a6a6a6"/><stop offset="0.34" stop-color="#d6d6d6"/><stop offset="0.35" stop-color="#f4f4f4"/><stop offset="0.36" stop-color="#fff"/><stop offset="0.47" stop-color="#8f8b8c"/><stop offset="0.5" stop-color="#adaaab"/><stop offset="0.55" stop-color="#d9d8d8"/><stop offset="0.58" stop-color="#f5f4f4"/><stop offset="0.61" stop-color="#fff"/><stop offset="0.7" stop-color="#9a9a9a"/><stop offset="0.76" stop-color="#595959"/><stop offset="0.79" stop-color="#404040"/><stop offset="0.81" stop-color="#2e2e2e"/><stop offset="0.84" stop-color="#1c1c1c"/><stop offset="0.87" stop-color="#151515"/><stop offset="0.95" stop-color="#d6d6d6"/><stop offset="1" stop-color="#4e4e4e"/></linearGradient><linearGradient id="linear-gradient-9" x1="6763.93" y1="-7625.96" x2="6763.93" y2="-7624.83" xlink:href="#linear-gradient-6"/><linearGradient id="linear-gradient-10" x1="6763.96" y1="-7625.96" x2="6763.96" y2="-7624.83" xlink:href="#linear-gradient-7"/><linearGradient id="linear-gradient-11" x1="6763.94" y1="-7625.96" x2="6763.94" y2="-7624.83" xlink:href="#linear-gradient-8"/><linearGradient id="linear-gradient-12" x1="-894.1" y1="28.01" x2="-893.03" y2="28.01" gradientTransform="matrix(-1, 0, 0, 1, -870.64, 0)" gradientUnits="userSpaceOnUse"><stop offset="0" stop-color="gray"/><stop offset="0.66" stop-color="#fff"/></linearGradient></defs><title>vnc logo</title><g class="cls-1"><g id="final"><g id="_1" data-name="1"><g id="_2" data-name="2"><path class="cls-2" d="M66.25,28.37c.7,1.24.94,2.43.53,2.66s-1.31-.58-2-1.82-.94-2.43-.53-2.66S65.54,27.13,66.25,28.37Z"/><path class="cls-3" d="M67,30.76a.4.4,0,0,1-.17.22l0,0c-.38.12-1.21-.7-1.89-1.89s-1-2.32-.66-2.58c0,0,0,0,0,0a.46.46,0,0,1,.28,0,3.39,3.39,0,0,1,2,1.57l.06.11A3.37,3.37,0,0,1,67,30.76Z"/><path class="cls-4" d="M67,30.76,67,30.71a6.86,6.86,0,0,1-1.46-1.92,6.94,6.94,0,0,1-.91-2.24.27.27,0,0,1,0-.09,3.39,3.39,0,0,1,2,1.57l.06.11A3.37,3.37,0,0,1,67,30.76Z"/><path class="cls-5" d="M66.57,28.22a.49.49,0,0,1-.07.67.56.56,0,0,1-.56-.91A.49.49,0,0,1,66.57,28.22Z"/><path class="cls-6" d="M71.74,37.31a.23.23,0,0,1-.22-.15L68.28,29l-2.08-.4a.24.24,0,0,1-.19-.28.25.25,0,0,1,.28-.19l2.21.43a.22.22,0,0,1,.17.14L72,37a.24.24,0,0,1-.13.31Z"/><path class="cls-7" d="M31.71,75a5.66,5.66,0,1,1-5.66-5.66A5.66,5.66,0,0,1,31.71,75Z"/><path class="cls-3" d="M29.55,75a3.27,3.27,0,1,1-3.26-3.26A3.26,3.26,0,0,1,29.55,75Z"/><path class="cls-8" d="M27.39,75a1.1,1.1,0,1,1-1.1-1.1A1.1,1.1,0,0,1,27.39,75Z"/><path class="cls-9" d="M26.05,64.59A10.74,10.74,0,1,0,36.78,75.33,10.74,10.74,0,0,0,26.05,64.59ZM26.3,81.2A6.19,6.19,0,1,1,32.49,75,6.19,6.19,0,0,1,26.3,81.2Z"/><path class="cls-8" d="M26.05,66.81a8.52,8.52,0,1,0,8.51,8.52A8.53,8.53,0,0,0,26.05,66.81ZM26.25,80a4.91,4.91,0,1,1,4.91-4.91A4.91,4.91,0,0,1,26.25,80Z"/><path class="cls-9" d="M26.3,65a10,10,0,1,0,9.93,10A10,10,0,0,0,26.3,65Zm0,16.18A6.19,6.19,0,1,1,32.49,75,6.19,6.19,0,0,1,26.3,81.2Z"/><path class="cls-3" d="M18.45,75a7.76,7.76,0,1,1,7.76,7.76A7.77,7.77,0,0,1,18.45,75Zm.92,0a6.84,6.84,0,1,0,6.84-6.84A6.85,6.85,0,0,0,19.37,75Z"/><path class="cls-7" d="M93.43,75a5.66,5.66,0,1,1-5.66-5.65A5.65,5.65,0,0,1,93.43,75Z"/><path class="cls-3" d="M91.28,75A3.27,3.27,0,1,1,88,71.75,3.26,3.26,0,0,1,91.28,75Z"/><path class="cls-9" d="M87.77,64.59A10.74,10.74,0,1,0,98.51,75.33,10.74,10.74,0,0,0,87.77,64.59ZM88,81.2A6.19,6.19,0,1,1,94.21,75,6.19,6.19,0,0,1,88,81.2Z"/><path class="cls-8" d="M87.77,66.81a8.52,8.52,0,1,0,8.52,8.52A8.52,8.52,0,0,0,87.77,66.81ZM88,80a4.91,4.91,0,1,1,4.91-4.91A4.9,4.9,0,0,1,88,80Z"/><path class="cls-9" d="M88,65A10,10,0,1,0,98,75,10,10,0,0,0,88,65ZM88,81.2A6.19,6.19,0,1,1,94.21,75,6.19,6.19,0,0,1,88,81.2Z"/><path class="cls-3" d="M80.17,75a7.76,7.76,0,1,1,7.76,7.76A7.77,7.77,0,0,1,80.17,75Zm.92,0a6.84,6.84,0,1,0,6.84-6.84A6.85,6.85,0,0,0,81.09,75Z"/><path class="cls-6" d="M88.88,74.56a4,4,0,0,0-.93.5c-.11.1-.19.19-.18.27,0,.3-5.64-7.59-5.65-7.62l.54-.73.52-.69.92,1.3L88.48,74Z"/><path class="cls-5" d="M88.81,74.26s-.24-.12-.23-.09c0,.26-4.55-6.36-4.57-6.38l.09-.2Z"/><path class="cls-5" d="M88,75.06c-.11.1-.19.19-.18.27,0,.3-5.64-7.59-5.65-7.62l.54-.73Z"/><path class="cls-8" d="M89.11,75A1.1,1.1,0,1,1,88,73.92,1.1,1.1,0,0,1,89.11,75Z"/><path class="cls-10" d="M92.94,65.83h0c-3.09.31-6.57,2.3-8.86,4.36s-2.82,4.57-4.62,6.7c-.45.53-.91,1-1.3,1.47A10.32,10.32,0,0,1,77.59,75a10.42,10.42,0,0,1,15.35-9.18Z"/><path class="cls-11" d="M8.71,65.83h5.74v2.35H8.72A1.18,1.18,0,0,1,7.54,67h0A1.17,1.17,0,0,1,8.71,65.83Z"/><path class="cls-4" d="M9.94,58l-.13.14a2.25,2.25,0,0,0-.49,1.45v3.52a1.32,1.32,0,0,0,1,1.44h0c.29,0,.55-.24.62-.63.21-1.26.55-4-.09-5.68C10.67,57.79,10.23,57.67,9.94,58Z"/><polygon class="cls-12" points="11.91 55.96 10.11 57.47 10.11 64.77 12.65 65.5 11.91 55.96"/><path class="cls-10" d="M37.83,72.32a6.08,6.08,0,0,1-.93,2.43c-.78,1.24-.47,2.74-.94,4.06-.25,0-3.72-4.17-9-5.58-7.71-2.07-11.21.88-10.88-.39a14.37,14.37,0,0,1,3.26-5c2.28-2.28,4.61-4.13,7.79-4.13a12.67,12.67,0,0,1,8.5,3A6.29,6.29,0,0,1,37.83,72.32Z"/><path class="cls-9" d="M46.8,74.27l0,0c-.46-.34-2.87-4.75-3.34-4.42A18.9,18.9,0,0,0,41.91,71a6.92,6.92,0,0,0-5.84-5.67c-3.8-.71-7.38,1.35-8,4.62s2,6.48,5.78,7.2a87.3,87.3,0,0,0,12.44-.53A1.31,1.31,0,0,0,46.8,74.27Z"/><path class="cls-13" d="M35.87,66.4c-3.11-.58-6,1.11-6.55,3.78s1.62,5.31,4.73,5.9S40.1,75,40.61,72.3,39,67,35.87,66.4Zm-1.71,9.09c-2.73-.51-4.6-2.83-4.15-5.18s3-3.83,5.75-3.32,4.6,2.84,4.16,5.18S36.9,76,34.16,75.49Z"/><path class="cls-13" d="M39.27,72.34,30.55,70.7a.28.28,0,0,1-.21-.31h0a.26.26,0,0,1,.31-.2l8.71,1.64a.25.25,0,0,1,.21.3h0A.27.27,0,0,1,39.27,72.34Z"/><path class="cls-13" d="M38.5,73.44,30.86,72a.26.26,0,0,1-.2-.31h0a.25.25,0,0,1,.3-.2l7.63,1.43a.27.27,0,0,1,.21.31h0A.25.25,0,0,1,38.5,73.44Z"/><path class="cls-13" d="M37.42,74.46,31.5,73.35a.27.27,0,0,1-.21-.3h0a.27.27,0,0,1,.31-.21L37.51,74a.26.26,0,0,1,.21.31h0A.25.25,0,0,1,37.42,74.46Z"/><path class="cls-13" d="M35.61,75.09,33,74.59a.26.26,0,0,1-.21-.3h0a.28.28,0,0,1,.31-.21l2.64.5a.26.26,0,0,1,.21.3h0A.26.26,0,0,1,35.61,75.09Z"/><path class="cls-13" d="M31.39,69.21,39,70.64a.27.27,0,0,1,.21.31h0a.26.26,0,0,1-.3.21l-7.64-1.44a.25.25,0,0,1-.2-.3h0A.25.25,0,0,1,31.39,69.21Z"/><path class="cls-13" d="M32.47,68.19l5.92,1.11a.27.27,0,0,1,.21.31h0a.26.26,0,0,1-.31.2L32.37,68.7a.25.25,0,0,1-.2-.3h0A.25.25,0,0,1,32.47,68.19Z"/><path class="cls-13" d="M34.28,67.56l2.65.5a.27.27,0,0,1,.21.3h0a.27.27,0,0,1-.31.21l-2.64-.5a.25.25,0,0,1-.21-.3h0A.26.26,0,0,1,34.28,67.56Z"/><path class="cls-14" d="M74,74.45a18.48,18.48,0,0,1,4.31-10.72c3.09-3.39,10.16-6,18.79.38h0a.41.41,0,0,1-.25.74C91,64.57,84.54,66.24,80.74,71c-.91,1.15-1.7,2.51-2.68,3.6-.67.75-2,.82-3,.91A1,1,0,0,1,74,74.45Z"/><path class="cls-15" d="M77.57,69.82c-.45-.19-.35-1.11-.06-2.11,1.1-3.84,5.34-5.91,9.16-5.91a21.73,21.73,0,0,1,7.61,1.56.19.19,0,0,1-.06.36c-3.92.41-7.7.11-11.14,2.11-1.47.85-2.81,2.52-4.19,3.5C78.24,69.8,77.82,69.92,77.57,69.82Z"/><path class="cls-3" d="M70.15,42.8l-2.58-4.52a.38.38,0,0,1,.06-.45l3.63-3.62a2.81,2.81,0,0,1,1.19-.72l3.06-.94a.35.35,0,0,1,.46.27l1.11,5.34a.37.37,0,0,1-.32.44l-2.48.25a.35.35,0,0,0-.33.36v.21a.36.36,0,0,0,.3.36h0a.36.36,0,0,1,.14.66l-3.72,2.49A.37.37,0,0,1,70.15,42.8Z"/><path class="cls-16" d="M76,32.91h.18a1.41,1.41,0,0,1,1.41,1.42v3a1.78,1.78,0,0,1-.21.85l-.61.42Z"/><path class="cls-17" d="M14.1,51.52l.34.84a4.05,4.05,0,0,0,1.12,1.53l1.5,1.28L12.93,56h0a4.35,4.35,0,0,0-3.4-4.36c-.44-.1-.73-.14-.73-.14Z"/><path class="cls-18" d="M56,55.21a2.93,2.93,0,0,1,.37-.89L28.41,52.09l-1,2.35-13.36.06a2.39,2.39,0,0,0-2.37,2.4l0,8.62,28.29-.82s1.39,1.46,2.77,2.93A15.58,15.58,0,0,1,47.49,69q1.3.58,2.76,1.11a7.17,7.17,0,0,1-.48-2.28C49.64,65.37,54.09,57.91,56,55.21Z"/><path class="cls-19" d="M66,73.92c-3.47-.64-7.41-.72-10.42-2.79a6.77,6.77,0,0,1-2.79-6c.1-2.48,1.25-4.12,2.12-6.61.07-.2.65-2.13,1-3.29-1.88,2.7-6.33,10.16-6.2,12.64a7.17,7.17,0,0,0,.48,2.28,77.26,77.26,0,0,0,17.88,4.2C67.37,74.21,66.63,74,66,73.92Z"/><path class="cls-15" d="M74.11,64.48l-.06.13,0,.08a2.14,2.14,0,0,0-.1.22v0c0,.08-.06.16-.08.23l0,.07,0,.15a.24.24,0,0,0,0,.08.65.65,0,0,0,0,.13l0,.07a.57.57,0,0,1,0,.14v0c0,.06,0,.12,0,.17a.06.06,0,0,1,0,0s0,.08,0,.11v0s0,.06,0,.09v0s0,.05,0,.08v0a.31.31,0,0,0,0,.09v.1a.08.08,0,0,0,0,0v0h0l-1-.68a4.78,4.78,0,0,1-.83-.71,3.79,3.79,0,0,1-1.08-2.71l.32-10.21a.87.87,0,0,1,.36-.66,1.23,1.23,0,0,1,.63-.26l.21,0c.81,0,1.35-.34,1.48-.84A36.36,36.36,0,0,1,74.11,64.48Z"/><path class="cls-4" d="M72.13,64l-.06.13s0,0,0,.08l-.09.22v0l-.09.23,0,.07a.88.88,0,0,0,0,.15l0,.08,0,.13,0,.07s0,.1,0,.14v0a3.79,3.79,0,0,1-1.08-2.71l.32-10.21a.87.87,0,0,1,.36-.66,1.23,1.23,0,0,1,.63-.26A36.76,36.76,0,0,1,72.13,64Z"/><path class="cls-14" d="M74.62,62.08l.1-.14.24-.35a1.33,1.33,0,0,1,.14-.19c.1-.15.21-.29.32-.43.27-.34.55-.67.79-1a6.58,6.58,0,0,0,.85-4.8,22.23,22.23,0,0,0-.85-2.62c-.32-.93-.65-1.86-1-2.78-.43-1.21-.87-2.42-1.32-3.62-.13-.37-.27-.74-.4-1.1l-.24-.64L73,43.73c-.21-.56-.42-1.12-.64-1.69l-2,1.08c-.06,0,0,0,0,.08l.12.32.45,1.2q.82,2.19,1.64,4.38a3.69,3.69,0,0,1,.4,1.39,1.13,1.13,0,0,0,0,.26l0,.19c0,.14.06.28.08.42q.09.45.15.9a42.49,42.49,0,0,1,.44,4.51,45.16,45.16,0,0,1-.27,7.71l.07-.18,0,0A11.77,11.77,0,0,1,74.62,62.08Z"/><path class="cls-20" d="M76,42.36A3.32,3.32,0,0,0,72.46,42c-.06,0-.08,0-.06.09l.06.16.12.3.24.64.2.54.24.64.24.64c.13.36.27.73.4,1.1.45,1.2.89,2.41,1.32,3.62.34.92.67,1.85,1,2.78a22.23,22.23,0,0,1,.85,2.62,6.58,6.58,0,0,1-.85,4.8c-.24.37-.52.7-.79,1-.11.14-.22.28-.32.43a1.33,1.33,0,0,0-.14.19l-.24.35-.1.14a11.33,11.33,0,0,0-.77,1.36l0,.1,0,.06-.07.15-.16.36a.58.58,0,0,1-.05.14l0,0a1.24,1.24,0,0,0-.09.38c-.08.6-.17,1.21-.27,1.81a16.85,16.85,0,0,0-.2,2.14c0,.18,0,.35,0,.53A14,14,0,0,1,72.53,72a3.56,3.56,0,0,1-1.12,2.07,2.44,2.44,0,0,1-1.12.37,5.54,5.54,0,0,1-1.41,0c-.38,0-.76-.09-1.15-.13l-.87-.09c-.64-.08-1.29-.17-1.93-.27-1.49-.24-3-.53-4.45-.85a79.6,79.6,0,0,1-9.6-2.73q-1.12-.39-2.22-.84c-.8-.33-1.58-.7-2.38-1a10.75,10.75,0,0,0-4.67-.9,2.84,2.84,0,0,0-2,.88,1.67,1.67,0,0,0,0,2,3,3,0,0,0,.72.65c.26.19.52.4.77.62.62.53,1.22,1.09,1.81,1.66,1.32,1.27,2.59,2.59,3.86,3.91l1,1.08a6.44,6.44,0,0,0,1,.93,5,5,0,0,0,2.13.73,23.2,23.2,0,0,0,4.25.21,46.23,46.23,0,0,0,4.71-.38,88.32,88.32,0,0,0,8.71-1.59c.57-.13,1.13-.26,1.69-.41a3.94,3.94,0,0,0,2-1.37A4,4,0,0,0,73,75.4a5.75,5.75,0,0,0,.22-1.17c.1-.75.21-1.51.33-2.26A21.12,21.12,0,0,1,74.87,67a11.55,11.55,0,0,1,2.74-3.89,14,14,0,0,1,3.4-2.3l.27-.12C82.56,56.34,78.07,46.51,76,42.36Z"/><path class="cls-21" d="M84,59.46c0-.12,0,0,0-.16a23.43,23.43,0,0,0-1.14-3.13c-1-2.45-2.15-4.85-3.29-7.25-.86-1.82-1.74-3.62-2.63-5.43A3.19,3.19,0,0,0,76,42.36c2.06,4.15,6.55,14,5.27,18.37a13.16,13.16,0,0,1,1.35-.55l.72-.24a5.9,5.9,0,0,0,.6-.17C84,59.72,84,59.55,84,59.46Z"/><path class="cls-8" d="M72.17,76.73a3.89,3.89,0,0,1-2,1.2c-4.68,1.16-14.38,3.21-20,2a3.85,3.85,0,0,1-2-1.11c-1.53-1.59-2.88-3-4.06-4.17C47.48,76,55.2,77.6,72.17,76.73Z"/><path class="cls-12" d="M47,76.19s1.8,3.07,4.87,3.18c3.38.1,13.79-.59,15.66-1.56C55.69,77.78,49.93,77.75,47,76.19Z"/><path class="cls-3" d="M28.65,55.17a27.87,27.87,0,0,0-10.91,5.26,23.6,23.6,0,0,0-6.09,6.92,8.59,8.59,0,0,0-1,2.68,2.1,2.1,0,0,0,0,.9.62.62,0,0,0,.07.19C13.5,66.34,19.37,58.49,28.65,55.17Z"/><path class="cls-14" d="M49,69.07A16.54,16.54,0,0,0,34.6,54.44a4.87,4.87,0,0,0-.54,0,29.66,29.66,0,0,0-5.14.68l-.27.07c-9.28,3.32-15.15,11.17-18,16a.87.87,0,0,0,.34.37,2.67,2.67,0,0,0,1.69.24,5.86,5.86,0,0,0,2.21-.82,17.1,17.1,0,0,1,2.37-1,31,31,0,0,1,16.43-1.12A110.06,110.06,0,0,1,46.3,72.22C47.84,72.68,49.28,71,49,69.07Z"/><path class="cls-15" d="M47.11,68.5c-6.72-4.78-19.72-6-29.52-3-.39.12-3.47.83-3.49.87,2.89-4.58,8.67-8.58,13.79-10.19,5.41-1.71,11.27-.91,15.37,3.22a17.2,17.2,0,0,1,2.82,3.8c.58,1.06,1.83,3,2,4.18C48.23,68.4,47.66,68.89,47.11,68.5Z"/><path class="cls-22" d="M45.27,64.92l-.13-.23c-.15-.26-.29-.49-.4-.7a15.8,15.8,0,0,0-2.57-3.46,12.36,12.36,0,0,0-9-3.61,16.14,16.14,0,0,0-4.84.77,26.29,26.29,0,0,0-8,4.32c-.38.3,7.29-3.75,12.44-3.3A18,18,0,0,1,45.27,64.92Z"/><path class="cls-8" d="M56.77,54.21c0,1.48-8.91,3.66-14.3,1.57C38.13,54.1,32,52.19,27.88,52.06a1.45,1.45,0,0,1-1.05-2.39c2.65-3.13,5-3.07,8.16-.66a18.51,18.51,0,0,0,7.35,3c2.7.64,4.8,1.34,7.64.69S56.27,49.49,56.77,54.21Z"/><path class="cls-12" d="M55.9,51.84c-1.4,1.4-8.3,3-12.66,1.08-3.92-1.68-9.51-3.58-13.19-3.71a1.38,1.38,0,0,1-1.26-1.42c2.18-1.64,4.62-1.95,7.56-.65,3.88,1.71,7.5,4,11.94,3.37S54.81,50.48,55.9,51.84Z"/><path class="cls-8" d="M69.53,75.22A32.83,32.83,0,0,1,61.18,74a24.11,24.11,0,0,1-3.27-.91,4.76,4.76,0,0,1-2.69-2.2c.61.63,5.84,2.43,10.5,3a30.1,30.1,0,0,0,3.66.3c1.16,0,2.06,0,2.77-1C72.57,74.78,70.71,75.22,69.53,75.22Z"/><path class="cls-17" d="M25,50.66c0,.63-.33,1.14-.73,1.14H7.88a.63.63,0,0,1-.51-.33,1.54,1.54,0,0,1-.21-.81c0-.62.32-1.13.72-1.13H24.3a.65.65,0,0,1,.52.33A1.53,1.53,0,0,1,25,50.66Z"/><path class="cls-23" d="M25,50.66H7.16c0-.62.32-1.13.72-1.13H24.3a.65.65,0,0,1,.52.33A1.53,1.53,0,0,1,25,50.66Z"/><path class="cls-2" d="M70.81,26.74c0,1.43-.38,2.58-.86,2.58s-.85-1.16-.85-2.58.39-2.58.86-2.58S70.81,25.32,70.81,26.74Z"/><path class="cls-3" d="M71.27,26.74a3.4,3.4,0,0,1-1,2.48.5.5,0,0,1-.25.1c-.42,0-.75-1.16-.75-2.58s.34-2.58.76-2.58a.45.45,0,0,1,.25.11,3.32,3.32,0,0,1,1,2.33Z"/><path class="cls-4" d="M71.27,26.74a3.4,3.4,0,0,1-1,2.48A6.09,6.09,0,0,1,70,26.74a6,6,0,0,1,.36-2.47,3.32,3.32,0,0,1,1,2.33Z"/><path class="cls-5" d="M71.21,26.91c0,.3-.26.5-.48.47s-.36-.3-.32-.59.26-.5.48-.47A.49.49,0,0,1,71.21,26.91Z"/><path class="cls-6" d="M71.25,37.27h0A.22.22,0,0,1,71,37l1.13-8.32L70.63,26.9a.25.25,0,0,1,0-.34.24.24,0,0,1,.33,0l1.59,1.86a.22.22,0,0,1,.06.19l-1.15,8.42A.25.25,0,0,1,71.25,37.27Z"/><path class="cls-6" d="M71.21,36.71h0a.92.92,0,0,0-1.28.11l-2.45,3.07.26,0,.1,1h.77a.43.43,0,0,1-.2-.2s0-.08.08,0a.26.26,0,0,0,.18.09h0a.13.13,0,0,1,.18-.12.91.91,0,0,1,0-.17.18.18,0,0,1,.23-.18.3.3,0,0,1,.19.12l2-2.35A.91.91,0,0,0,71.21,36.71Z"/><path class="cls-8" d="M70.94,39.37a1.34,1.34,0,0,1-1.93.2,1.38,1.38,0,0,1-.47-1.88,1.35,1.35,0,0,1,1.93-.2A1.37,1.37,0,0,1,70.94,39.37Z"/><path class="cls-8" d="M68.38,37.79l.36-.31a1.58,1.58,0,0,1,.35-.16l.71.07Z"/><path class="cls-6" d="M70.83,39.43a1.56,1.56,0,1,1-.73-1.68A1.33,1.33,0,0,1,70.83,39.43Z"/><path class="cls-5" d="M70.61,39.35a1.12,1.12,0,0,1-1.55.25A1,1,0,1,1,70,37.92,1.14,1.14,0,0,1,70.61,39.35Z"/><path class="cls-8" d="M69.82,38.15a1.11,1.11,0,0,0-1.4.08,31.82,31.82,0,0,0-2.85,3.25s0,.11,0,.15l.17.48.51-.1a2.93,2.93,0,0,0,0,.29.87.87,0,0,1,.59.12c.94-1.06,2.45-1.85,3.57-3C70.69,39.13,70.31,38.47,69.82,38.15Z"/><path class="cls-6" d="M66.76,41.5a.76.76,0,0,1,.07,1.06.78.78,0,0,1-1-.23.67.67,0,1,1,1-.83Z"/></g></g><g id="_2-2" data-name="2"><path class="cls-24" d="M67,40.18l.13.24a8.69,8.69,0,0,0-1.79-.3l-1-.1c-.64-.05-1.34-.08-1.38,0l.07-.29.28-1.08c.32,0,.64,0,1-.05.73,0,1.46,0,2.18,0,.54,0,1.09.06,1.63.13l-1,1-.06.08A.34.34,0,0,0,67,40.18Z"/><path class="cls-25" d="M67.17,40.42a8.69,8.69,0,0,0-1.79-.3l-1-.1c-.64-.05-1.34-.08-1.38,0l.07-.29c.44,0,.86,0,1.29,0s1.05,0,1.57,0,.77,0,1.15.08a.34.34,0,0,0,0,.34Z"/><path class="cls-25" d="M47.48,32.76l3.93,1.11-.29,7.28,13.12-2.94.11,2a92.06,92.06,0,0,1-15.13,5.8C48.8,46.16,46.24,42.06,47.48,32.76Z"/><path class="cls-26" d="M66.2,62.09c-.7-2.08-.87-4.41-1.75-6.42-.53-1.22.13-1-1.05-1-.27,0-2.45.19-2.41.41a57.88,57.88,0,0,0,4.65,13.35c.29.63,1.16,2.88,1.38,3.4.13.3,2-.24,2-.62C68.75,69.74,66.82,63.9,66.2,62.09Z"/><path class="cls-27" d="M59.11,24.75a1.52,1.52,0,0,0-.24-.81,1.81,1.81,0,0,0,.75.4c.83.19,1.24-.7,1.64-1.23a19.27,19.27,0,0,1-2.13-.62c-.51-.18-1.79-.21-1.72.62,0,.39.52.78.83,1a3.52,3.52,0,0,1,.52.21S59.11,24.78,59.11,24.75Z"/><path class="cls-24" d="M63.59,21.73a2.59,2.59,0,0,1-.35.31l-.12.08,0,0c-.45.27-1.17.33-1.55.64a0,0,0,0,0,0,0c-.4.33-.22,1.28-.84,1.39s-1.94-.79-2.58-1.33c-.15.77,1.71,1.27,1.77,2.4-.87.41-.75,1.48-2.45,1.71a4.55,4.55,0,0,1-1.11,0c-.45-.05-.9-.13-1.29-.18-1.79-.23-4.21-.41-5-2.05-1.44-3.15-5.28-5.52-3.85-9a8.44,8.44,0,0,1,13-3.45c1.83,1.46,1.64,2.44,1.86,4.44a3.86,3.86,0,0,0,1,2.34,2.09,2.09,0,0,0,.67.38l.44.19a1.51,1.51,0,0,1,.66.53A1.26,1.26,0,0,1,63.59,21.73Z"/><path class="cls-28" d="M47.69,20.91c.27,1.22-.28,3.16-1.95,2.29a1.92,1.92,0,0,0,2.23.65c-.27,1.35-2,1.26-3.09,1.49,0,.7,1.42.82,1.91.78a4.08,4.08,0,0,0,2.94-5.24c-.06-.34-.84-2.95-.4-3.13s2.11,1.81,2.11,1.81l1.9-2c.08-.09.11-.5.17-.62a3.19,3.19,0,0,1,1.25-1.42c1.29-.86,3.46-1.8,5-1.26,1,.34,2.12,2.32,3.25,1.5a2.29,2.29,0,0,1-1.23-.69c.93.6,2.27,0,3.1-.59a2,2,0,0,0,.83-1.15c0-.5-.55-.54-.56-.61.08,1.23-1.35,1.74-2.36,1.57-1.24-.2-1.47-1.85-2.62-2.34a12.57,12.57,0,0,0-4.48-.63,9.62,9.62,0,0,0-6.2,1.44C47,14.64,47.07,18.11,47.69,20.91Z"/><path class="cls-29" d="M64.37,64.68c-.54-1.9-.53-4-1.26-5.86-.43-1.12-.48-1.16-1.66-1.23-.26,0-2.44.09-2.42.29a47.36,47.36,0,0,0,3.62,12.23c.24.58.78,2.65,1.27,3,.75.44,1.26-.43,1.85-.62-.19-1.21-.4-2.39-.48-3.62A20.3,20.3,0,0,0,64.37,64.68Z"/><path class="cls-30" d="M59.91,47.57c2.08,0,3.88,4.49,4.6,6.92C65,56.05,67,64.41,67.24,64.3a8,8,0,0,1-2.53,1.55c-2.15.52-2.49-6.33-4.41-7.52-1.56-1-1-4.59-1-6.25C59.22,51.11,58,47.59,59.91,47.57Z"/><path class="cls-24" d="M50.07,24.69c-.59,1-2.53,2.08-2.15,3.33.25.8,1.44,1.58,2.07,2.08.88.68,1.26.7,2.14,0A5.87,5.87,0,0,0,54,26.32c.13-.76.59-1.93-.22-2.44C53.19,23.49,50.46,24,50.07,24.69Z"/><path class="cls-31" d="M47.73,44.09c.85.89,2.46.86,3.75,1a41.83,41.83,0,0,1,7.61,1.5c3.64,1.14,3.41,3.42,4,6.48,1,4.66.51,8.59,2,13.14.1.3-3.89,2.15-4.07.92-.32-2.16-3.34-12.54-3.93-14.1-1.64-4.35-7.21-1.12-11.54-1.87-5.07-.88-8.32-2.17-9.32-6.32C40,45.47,45,44.65,47.73,44.09Z"/><path class="cls-31" d="M55,26.73S50.76,24.84,50,21.59s-1.09.47-1.09.47a8.94,8.94,0,0,0,5.38,5.3A1.33,1.33,0,0,0,55,26.73Z"/><path class="cls-32" d="M35.39,45.25c-.92-.66-3-1.27-1.62-2.58a14.69,14.69,0,0,0,2-2c1.36-1.85,1.73-4.27,2.87-6.25a18.5,18.5,0,0,1,4.92-5.47c.54-.45,4.73-2.57,4.77-2.34.5,2.5,2.63,2.56,4.58,2.9.09,2.26-1.33,5.83-2.47,7.77-1,1.79-3.86,4.68-3,6.34a2.09,2.09,0,0,0,.29.42c-2.5.51-5,1.14-7.5,1.48C38.61,45.7,36.73,46.22,35.39,45.25Z"/><path class="cls-33" d="M70.73,74.13a1.91,1.91,0,0,0,1.52-1.29c-1.06-.29-2.81-.41-3.26-1.69a3.43,3.43,0,0,1-.8.57,4.49,4.49,0,0,1-1.22.16c.08.12-.1,1.48.25,1.77s1.23.13,1.65.34,1,0,1.62.22Z"/><path class="cls-28" d="M56.3,16.84a2.85,2.85,0,0,1,3.31-.11C61.2,17.93,59.18,14.37,56.3,16.84Z"/><path class="cls-27" d="M57.19,18.51a2.63,2.63,0,0,1,1-.58,2.37,2.37,0,0,1,.51-.09,2.91,2.91,0,0,1,1.46.27,1.43,1.43,0,0,1-.86.72c-.28.07-.47,0-1.19-.15Z"/><path class="cls-34" d="M59.62,18.34a.41.41,0,0,1-.8,0,.4.4,0,0,1,.8,0Z"/><path class="cls-28" d="M59.46,18.31a.23.23,0,0,1-.24.22.22.22,0,1,1,0-.43A.23.23,0,0,1,59.46,18.31Z"/><path class="cls-35" d="M58.11,20.94a3.18,3.18,0,1,1-3.18-3.19A3.18,3.18,0,0,1,58.11,20.94Z"/><path class="cls-36" d="M63.24,22l-.15.1c-.45.27-1.17.34-1.55.64v-.09c0-.2.17-.24.24-.35a.91.91,0,0,1,.94-.49A.74.74,0,0,1,63.24,22Z"/><path class="cls-37" d="M63.59,21.66a2.11,2.11,0,0,1-.35.32l-.12.08a3.87,3.87,0,0,0-.4-2.66l.44.19a1.49,1.49,0,0,1,.66.52A1.25,1.25,0,0,1,63.59,21.66Z"/><path class="cls-38" d="M63.39,72.21s1.53.61,2.38,0c2.62,1.55,4.91-.39,5.77.63,1.47,1.75-6,2.38-8.35,1.06C62.52,73.13,63.39,72.21,63.39,72.21Z"/><path class="cls-24" d="M68.13,43.07a1.7,1.7,0,0,1-.23.24c-.31.25-.78.43-1,.25s-.29-1.28-.7-1.68c-.85-.82-2.47-.94-3.61-.94-.25,0-2.41-.09-2.47.15l.06-.3.19-1.1a30.73,30.73,0,0,1,3.19-.29,13.87,13.87,0,0,1,2.41.07c.51.07,1.81.14,2.12.53A4.22,4.22,0,0,1,68.13,43.07Z"/><path class="cls-24" d="M67.9,43.31c-.31.25-.78.43-1,.25s-.29-1.28-.7-1.68c-.85-.82-2.47-.94-3.61-.94-.25,0-2.41-.09-2.47.15l.06-.3c1-.13,1.94-.21,2.91-.25a9.48,9.48,0,0,1,3.09.26,3,3,0,0,1,1.36.78A1.94,1.94,0,0,1,67.9,43.31Z"/><path class="cls-39" d="M44.11,35.5l5,.36-.94,7.25,13.14-4,.28,2a94.7,94.7,0,0,1-14.95,7C46.16,48.29,42.34,46.18,44.11,35.5Z"/><path class="cls-28" d="M59.55,17.67a1.19,1.19,0,0,0,.91,0C60.2,18,60.22,18,59.55,17.67Z"/><path class="cls-40" d="M49.27,37.21s1.91-4.08,1.22-6.1-4.72-3.62-6.94,3.54C43.16,35.78,49.27,37.21,49.27,37.21Z"/></g><g id="_4" data-name="4"><path class="cls-41" d="M2.54,39.72a18.22,18.22,0,0,1,.37-2.17,5.4,5.4,0,0,1,4.24-3.32A74.48,74.48,0,0,1,20.67,34l-5.75,5.75Z"/><path class="cls-14" d="M20.67,34c.95.07,1.9.15,2.85.26a5.39,5.39,0,0,1,4.23,3.32,16.44,16.44,0,0,1,.38,2.17H14.92Z"/><path class="cls-14" d="M28.18,43.17a16.2,16.2,0,0,1-.43,2.66,5.4,5.4,0,0,1-4.23,3.33,74.66,74.66,0,0,1-16.37,0,4.55,4.55,0,0,1-1.3-.37l5.62-5.62Z"/><path class="cls-3" d="M13.54,41.11H28.23c0,.22,0,.45,0,.67H12.86Z"/><path class="cls-42" d="M5.85,48.79a5.12,5.12,0,0,1-2.94-3,18.65,18.65,0,0,1-.43-2.66h9Z"/><path class="cls-43" d="M12.86,41.78H2.42c0-.22,0-.45,0-.67H13.54Z"/><path class="cls-44" d="M1.28,40.54v-.25a.57.57,0,0,1,.57-.57h.69c0,.42-.09.83-.1,1.25a.61.61,0,0,0,0,.14H1.85A.57.57,0,0,1,1.28,40.54Z"/><path class="cls-44" d="M28.13,39.72h.53a.58.58,0,0,1,.57.57v.25a.58.58,0,0,1-.57.57h-.43V41C28.21,40.55,28.18,40.14,28.13,39.72Z"/><path class="cls-44" d="M13.68,41H2.44c0-.42.05-.83.1-1.25H14.92Z"/><path class="cls-44" d="M13.68,41l1.24-1.25H28.13c.05.42.08.83.1,1.25Z"/><path class="cls-44" d="M13.68,41H28.23v.14H13.54Z"/><path class="cls-44" d="M13.68,41l-.14.14H2.43a.61.61,0,0,1,0-.14Z"/><path class="cls-44" d="M28.66,41.78a.58.58,0,0,1,.57.57v.25a.58.58,0,0,1-.57.57h-.48c0-.46.06-.93.06-1.39Z"/><path class="cls-44" d="M1.85,43.17a.57.57,0,0,1-.57-.57v-.25a.57.57,0,0,1,.57-.57h.57c0,.46,0,.93.06,1.39Z"/><path class="cls-44" d="M11.47,43.17h-9c0-.46-.06-.93-.06-1.39H12.86Z"/><path class="cls-44" d="M12.86,41.78H28.24c0,.46,0,.93-.06,1.39H11.47Z"/></g><path class="cls-45" d="M58.11,15.39a39.27,39.27,0,0,1-6.92,4.14c-.73.35-1.49.69-2.29,1h0a57.77,57.77,0,0,1-6.73,2.31L47.39,10.8,64.05,9a17.09,17.09,0,0,1-3.73,4.55C59.69,14.13,59,14.75,58.11,15.39Z"/><path class="cls-46" d="M13.58,26H23.5V24a13.52,13.52,0,0,0-7.65.43,12.36,12.36,0,0,0-2.06,1Z"/><rect class="cls-27" x="13.68" y="27.01" width="9.92" height="2.05"/><path class="cls-47" d="M13.89,30.55h0l2,1c1,.51,3.12.9,7.66.49V30H13.68Z"/><rect class="cls-48" x="23.46" y="24.75" width="0.28" height="9.47"/><polygon class="cls-49" points="23.46 24.75 23.74 24.75 23.69 24.62 23.51 24.62 23.46 24.75"/><rect class="cls-50" x="23.03" y="34.24" width="1.13" height="0.15"/><rect class="cls-51" x="23.03" y="34.19" width="1.13" height="0.03"/><rect class="cls-52" x="23.03" y="34.41" width="1.13"/><rect class="cls-53" x="23.03" y="34.39" width="1.13"/><path class="cls-54" d="M23,34.39h0Z"/><rect class="cls-55" x="23.03" y="34.24" width="1.13"/><rect class="cls-56" x="23.03" y="34.21" width="1.13"/><path class="cls-57" d="M23,34.22h0Z"/><rect class="cls-58" x="22.4" y="25" width="1.06" height="6.02"/><path class="cls-46" d="M18.64,29.6h0a1.22,1.22,0,0,1-1.22-1.21V26.94h2.44v1.45a1.22,1.22,0,0,1-1.22,1.21Z"/><path class="cls-46" d="M18.64,29.59h0a1.2,1.2,0,0,1-1.2-1.2V27h2.39v1.43A1.19,1.19,0,0,1,18.64,29.59Z"/><path class="cls-27" d="M19.33,27h.46v.5h-.46Z"/><path class="cls-27" d="M19.33,28h-.46v-.51h.46Z"/><path class="cls-27" d="M19.79,28.39a.57.57,0,0,1,0,.13h-.45V28h.46Z"/><path class="cls-27" d="M18.41,28h.46v.5h-.46Z"/><path class="cls-27" d="M18.41,29H18v-.51h.46Z"/><path class="cls-27" d="M18,29.3a1.11,1.11,0,0,1-.26-.27H18Z"/><path class="cls-27" d="M19.33,29h-.46v-.51h.46Z"/><path class="cls-27" d="M19.59,29a1.37,1.37,0,0,1-.26.28V29Z"/><path class="cls-27" d="M18.56,29.53l-.15,0V29h.46v.48l-.15,0Z"/><path class="cls-27" d="M17.5,28.52a.57.57,0,0,1,0-.13V28H18v.5Z"/><path class="cls-27" d="M18.41,28H18v-.51h.46Z"/><path class="cls-27" d="M18.41,27h.46v.5h-.46Z"/><path class="cls-27" d="M17.49,27.51V27H18v.5Z"/></g></g></svg>